<svg viewBox="0 0 128 128" xmlns="http://www.w3.org/2000/svg">
  <defs>
    <linearGradient id="body" x1="0" y1="0" x2="0" y2="1">
      <stop offset="0" stop-color="#ffffff"/>
      <stop offset="1" stop-color="#f6f5f4"/>
    </linearGradient>
    <linearGradient id="slab" x1="0" y1="0" x2="0" y2="1">
      <stop offset="0" stop-color="#c0bfbc"/>
      <stop offset="1" stop-color="#9a9996"/>
    </linearGradient>
  </defs>
  <rect x="14" y="24" width="100" height="92" rx="10" fill="url(#slab)"/>
  <rect x="14" y="18" width="100" height="88" rx="10" fill="url(#body)"/>
  <rect x="14" y="18" width="100" height="24" rx="10" fill="#f1efee"/>
  <rect x="14" y="32" width="100" height="10" fill="#f1efee"/>
  <circle cx="104" cy="30" r="5" fill="#c0bfbc"/>
  <path d="m102.25 28.25 3.5 3.5m0-3.5-3.5 3.5" stroke="#5e5c64" stroke-width="1.5" stroke-linecap="round"/>
  <rect x="24" y="50" width="14" height="4" rx="2" fill="#3584e4" opacity=".7"/>
  <rect x="42" y="50" width="30" height="4" rx="2" fill="#9141ac" opacity=".5"/>
  <rect x="24" y="60" width="22" height="4" rx="2" fill="#5e5c64" opacity=".4"/>
  <rect x="50" y="60" width="36" height="4" rx="2" fill="#3584e4" opacity=".6"/>
  <rect x="24" y="70" width="40" height="4" rx="2" fill="#26a269" opacity=".5"/>
  <rect x="24" y="80" width="18" height="4" rx="2" fill="#9141ac" opacity=".4"/>
  <rect x="46" y="80" width="28" height="4" rx="2" fill="#5e5c64" opacity=".4"/>
  <rect x="24" y="90" width="32" height="4" rx="2" fill="#3584e4" opacity=".5"/>
  <rect x="84" y="78" width="24" height="18" rx="4" fill="#3178c6"/>
  <text x="96" y="91" font-family="sans-serif" font-size="10" font-weight="700" fill="#fff" text-anchor="middle">TS</text>
</svg>
